# xmcd
#
# Track frame offsets: 
#        150
#        15540
#        37697
#        58852
#        82087
#        101928
#        119046
#        137441
#        153623
#        174674
#        197205
#
# Disc length: 2828 seconds
#
# Revision: 3
# Processed by: cddbd v1.5.2PL0 Copyright (c) Steve Scherf et al.
# Submitted via: ExactAudioCopyFreeDBPlugin 1.0
#
DISCID=980b0a0b
DTITLE=Various Artist - Oh Happy Day
DYEAR=2009
DGENRE=Gospel, Rock, Funk - Soul, Blues
TTITLE0=Jonny Lang - I Believe [with Fisk Jubilee Singers]
TTITLE1=3 Doors Down - In the Presence of the Lord [with Soul Children
TTITLE1=of Chicago]
TTITLE2=Rupert Randolph, The Clark Sisters - Higher Ground
TTITLE3=Jon Bon Jovi - Keep the Faith [with Washington Youth Choir]
TTITLE4=Al Green, Heather Headley - People Get Ready
TTITLE5=Mavis Staples, Patty Griffin - Waiting for My Child to Come Ho
TTITLE5=me
TTITLE6=Michael McDonald - Storm Before the Calm [with West Angeles Co
TTITLE6=gic Mass Choir]
TTITLE7=Angelique Kidjo - Redemption Song
TTITLE8=Aaron Neville - A Change is Gonna Come [with Mt. Zion Mass Cho
TTITLE8=ir]
TTITLE9=Queen Latifah - Oh Happy Day [with Jubilation]
TTITLE10=Joss Stone, Buick Audra - This Little Light of Mine
EXTD=
EXTT0=
EXTT1=
EXTT2=
EXTT3=
EXTT4=
EXTT5=
EXTT6=
EXTT7=
EXTT8=
EXTT9=
EXTT10=
PLAYORDER=
